<?xml version="1.0" encoding="utf-8"?>
<!-- Svg Vector Icons : http://www.onlinewebfonts.com/icon -->
<!DOCTYPE svg PUBLIC "-//W3C//DTD SVG 1.1//EN" "http://www.w3.org/Graphics/SVG/1.1/DTD/svg11.dtd">
<svg version="1.1" xmlns="http://www.w3.org/2000/svg" xmlns:xlink="http://www.w3.org/1999/xlink" x="0px" y="0px" viewBox="0 0 1000 1000" enable-background="new 0 0 1000 1000" xml:space="preserve">
<metadata> Svg Vector Icons : http://www.onlinewebfonts.com/icon </metadata>
<g><g transform="translate(0.000000,511.000000) scale(0.100000,-0.100000)"><path d="M424,4983.3c-43.8-10.9-120.3-54.7-168.4-96.3C87.1,4742.7,100.2,5118.9,100.2,100.9c0-3176.2,6.6-4512.7,24.1-4574c32.8-118.1,113.7-220.9,216.6-273.4c85.3-43.8,124.7-43.8,4687.7-39.4l4600.2,6.6l89.7,59.1c52.5,35,107.2,96.2,135.6,153.1l45.9,96.2V100.9v4571.8l-50.3,96.3c-52.5,107.2-150.9,183.7-275.6,218.7C9466.9,5016.1,535.5,5013.9,424,4983.3z M2353.3,3456.4v-700h-700h-700v700v700h700h700V3456.4z M4584.5,3456.4v-700h-700h-700v700v700h700h700V3456.4z M6833.2,3463l-6.6-695.6l-693.4-6.6l-695.6-4.4v700v700h700h700L6833.2,3463z M9068.8,3456.4v-700h-700h-700v700v700h700h700V3456.4z M2353.3,1225.3v-700h-700h-700v700v700h700h700V1225.3z M4584.5,1225.3v-700h-700h-700v700v700h700h700V1225.3z M6833.2,1220.9l4.4-695.6h-700h-700v700v700l695.6-4.4l693.4-6.6L6833.2,1220.9z M9068.8,1225.3v-700h-700h-700v700v700h700h700V1225.3z M2348.9-1021.3l-6.6-695.6l-693.4-6.6l-695.6-4.4v700v700h700h700L2348.9-1021.3z M4584.5-1027.8v-700l-693.4,4.4l-695.6,6.6l-6.6,695.6l-4.4,693.4h700h700V-1027.8z M6833.2-1021.3l-6.6-695.6l-693.4-6.6l-695.6-4.4v700v700h700h700L6833.2-1021.3z M9068.8-1027.8v-700h-700h-700v700v700h700h700V-1027.8z M2353.3-3259v-700h-700h-700v700v700h700h700V-3259z M4584.5-3259v-700h-700h-700v700v700h700h700V-3259z M6837.6-3259v-700h-700h-700v700v700h700h700V-3259z M9068.8-3259v-700h-700h-700v700v700h700h700V-3259z"/></g></g>
</svg>