<svg width="266" height="59" viewBox="0 0 266 59" fill="none" xmlns="http://www.w3.org/2000/svg">
<path d="M20.256 47.576C17.632 47.576 15.184 47.144 12.912 46.28C10.672 45.416 8.72 44.2 7.056 42.632C5.424 41.064 4.144 39.224 3.216 37.112C2.32 35 1.872 32.696 1.872 30.2C1.872 27.704 2.32 25.4 3.216 23.288C4.144 21.176 5.44 19.336 7.104 17.768C8.768 16.2 10.72 14.984 12.96 14.12C15.2 13.256 17.632 12.824 20.256 12.824C22.912 12.824 25.344 13.256 27.552 14.12C29.792 14.984 31.728 16.2 33.36 17.768C35.024 19.304 36.32 21.128 37.248 23.24C38.176 25.352 38.64 27.672 38.64 30.2C38.64 32.696 38.176 35.016 37.248 37.16C36.32 39.272 35.024 41.112 33.36 42.68C31.728 44.216 29.792 45.416 27.552 46.28C25.344 47.144 22.912 47.576 20.256 47.576ZM31.248 54.728C29.936 54.728 28.688 54.584 27.504 54.296C26.352 54.008 25.2 53.544 24.048 52.904C22.928 52.264 21.744 51.4 20.496 50.312C19.28 49.224 17.952 47.88 16.512 46.28L24.672 44.216C25.536 45.4 26.336 46.344 27.072 47.048C27.808 47.752 28.512 48.248 29.184 48.536C29.888 48.824 30.624 48.968 31.392 48.968C33.44 48.968 35.264 48.136 36.864 46.472L40.32 50.6C38.048 53.352 35.024 54.728 31.248 54.728ZM20.256 40.952C21.76 40.952 23.136 40.696 24.384 40.184C25.664 39.672 26.784 38.936 27.744 37.976C28.704 37.016 29.44 35.88 29.952 34.568C30.496 33.224 30.768 31.768 30.768 30.2C30.768 28.6 30.496 27.144 29.952 25.832C29.44 24.52 28.704 23.384 27.744 22.424C26.784 21.464 25.664 20.728 24.384 20.216C23.136 19.704 21.76 19.448 20.256 19.448C18.752 19.448 17.36 19.704 16.08 20.216C14.8 20.728 13.68 21.464 12.72 22.424C11.792 23.384 11.056 24.52 10.512 25.832C10 27.144 9.744 28.6 9.744 30.2C9.744 31.768 10 33.224 10.512 34.568C11.056 35.88 11.792 37.016 12.72 37.976C13.68 38.936 14.8 39.672 16.08 40.184C17.36 40.696 18.752 40.952 20.256 40.952ZM44.484 47V13.4H59.028C62.036 13.4 64.628 13.896 66.804 14.888C68.98 15.848 70.66 17.24 71.844 19.064C73.028 20.888 73.62 23.064 73.62 25.592C73.62 28.088 73.028 30.248 71.844 32.072C70.66 33.896 68.98 35.304 66.804 36.296C64.628 37.256 62.036 37.736 59.028 37.736H48.804L52.26 34.232V47H44.484ZM52.26 35.096L48.804 31.4H58.596C60.996 31.4 62.788 30.888 63.972 29.864C65.156 28.84 65.748 27.416 65.748 25.592C65.748 23.736 65.156 22.296 63.972 21.272C62.788 20.248 60.996 19.736 58.596 19.736H48.804L52.26 16.04V35.096Z" fill="white"/>
<path d="M95.44 23.24C94.3467 23.24 93.3267 23.06 92.38 22.7C91.4467 22.34 90.6333 21.8333 89.94 21.18C89.26 20.5267 88.7267 19.76 88.34 18.88C87.9667 18 87.78 17.04 87.78 16C87.78 14.96 87.9667 14 88.34 13.12C88.7267 12.24 89.2667 11.4733 89.96 10.82C90.6533 10.1667 91.4667 9.66 92.4 9.3C93.3333 8.94 94.3467 8.76 95.44 8.76C96.5467 8.76 97.56 8.94 98.48 9.3C99.4133 9.66 100.22 10.1667 100.9 10.82C101.593 11.46 102.133 12.22 102.52 13.1C102.907 13.98 103.1 14.9467 103.1 16C103.1 17.04 102.907 18.0067 102.52 18.9C102.133 19.78 101.593 20.5467 100.9 21.2C100.22 21.84 99.4133 22.34 98.48 22.7C97.56 23.06 96.5467 23.24 95.44 23.24ZM100.02 26.22C99.4733 26.22 98.9533 26.16 98.46 26.04C97.98 25.92 97.5 25.7267 97.02 25.46C96.5533 25.1933 96.06 24.8333 95.54 24.38C95.0333 23.9267 94.48 23.3667 93.88 22.7L97.28 21.84C97.64 22.3333 97.9733 22.7267 98.28 23.02C98.5867 23.3133 98.88 23.52 99.16 23.64C99.4533 23.76 99.76 23.82 100.08 23.82C100.933 23.82 101.693 23.4733 102.36 22.78L103.8 24.5C102.853 25.6467 101.593 26.22 100.02 26.22ZM95.44 20.48C96.0667 20.48 96.64 20.3733 97.16 20.16C97.6933 19.9467 98.16 19.64 98.56 19.24C98.96 18.84 99.2667 18.3667 99.48 17.82C99.7067 17.26 99.82 16.6533 99.82 16C99.82 15.3333 99.7067 14.7267 99.48 14.18C99.2667 13.6333 98.96 13.16 98.56 12.76C98.16 12.36 97.6933 12.0533 97.16 11.84C96.64 11.6267 96.0667 11.52 95.44 11.52C94.8133 11.52 94.2333 11.6267 93.7 11.84C93.1667 12.0533 92.7 12.36 92.3 12.76C91.9133 13.16 91.6067 13.6333 91.38 14.18C91.1667 14.7267 91.06 15.3333 91.06 16C91.06 16.6533 91.1667 17.26 91.38 17.82C91.6067 18.3667 91.9133 18.84 92.3 19.24C92.7 19.64 93.1667 19.9467 93.7 20.16C94.2333 20.3733 94.8133 20.48 95.44 20.48ZM111.755 23.24C109.768 23.24 108.215 22.6867 107.095 21.58C105.975 20.4733 105.415 18.8933 105.415 16.84V9H108.655V16.72C108.655 18.0533 108.928 19.0133 109.475 19.6C110.022 20.1867 110.788 20.48 111.775 20.48C112.762 20.48 113.528 20.1867 114.075 19.6C114.622 19.0133 114.895 18.0533 114.895 16.72V9H118.095V16.84C118.095 18.8933 117.535 20.4733 116.415 21.58C115.295 22.6867 113.742 23.24 111.755 23.24ZM121.297 23V9H124.537V23H121.297ZM134.559 23.24C133.479 23.24 132.473 23.0667 131.539 22.72C130.619 22.36 129.819 21.8533 129.139 21.2C128.459 20.5467 127.926 19.78 127.539 18.9C127.166 18.02 126.979 17.0533 126.979 16C126.979 14.9467 127.166 13.98 127.539 13.1C127.926 12.22 128.459 11.4533 129.139 10.8C129.833 10.1467 130.639 9.64667 131.559 9.3C132.479 8.94 133.486 8.76 134.579 8.76C135.793 8.76 136.886 8.97333 137.859 9.4C138.846 9.81333 139.673 10.4267 140.339 11.24L138.259 13.16C137.779 12.6133 137.246 12.2067 136.659 11.94C136.073 11.66 135.433 11.52 134.739 11.52C134.086 11.52 133.486 11.6267 132.939 11.84C132.393 12.0533 131.919 12.36 131.519 12.76C131.119 13.16 130.806 13.6333 130.579 14.18C130.366 14.7267 130.259 15.3333 130.259 16C130.259 16.6667 130.366 17.2733 130.579 17.82C130.806 18.3667 131.119 18.84 131.519 19.24C131.919 19.64 132.393 19.9467 132.939 20.16C133.486 20.3733 134.086 20.48 134.739 20.48C135.433 20.48 136.073 20.3467 136.659 20.08C137.246 19.8 137.779 19.38 138.259 18.82L140.339 20.74C139.673 21.5533 138.846 22.1733 137.859 22.6C136.886 23.0267 135.786 23.24 134.559 23.24ZM145.427 19.8L145.247 16.06L151.947 9H155.547L149.507 15.5L147.707 17.42L145.427 19.8ZM142.527 23V9H145.747V23H142.527ZM152.107 23L147.127 16.9L149.247 14.6L155.887 23H152.107ZM157.332 23V9H163.392C164.645 9 165.725 9.20667 166.632 9.62C167.539 10.02 168.239 10.6 168.732 11.36C169.225 12.12 169.472 13.0267 169.472 14.08C169.472 15.12 169.225 16.02 168.732 16.78C168.239 17.54 167.539 18.1267 166.632 18.54C165.725 18.94 164.645 19.14 163.392 19.14H159.132L160.572 17.68V23H157.332ZM160.572 18.04L159.132 16.5H163.212C164.212 16.5 164.959 16.2867 165.452 15.86C165.945 15.4333 166.192 14.84 166.192 14.08C166.192 13.3067 165.945 12.7067 165.452 12.28C164.959 11.8533 164.212 11.64 163.212 11.64H159.132L160.572 10.1V18.04ZM169.242 23L175.482 9H178.682L184.942 23H181.542L176.422 10.64H177.702L172.562 23H169.242ZM172.362 20L173.222 17.54H180.422L181.302 20H172.362ZM186.394 23V9H192.454C193.708 9 194.788 9.20667 195.694 9.62C196.601 10.02 197.301 10.6 197.794 11.36C198.288 12.12 198.534 13.0267 198.534 14.08C198.534 15.12 198.288 16.02 197.794 16.78C197.301 17.5267 196.601 18.1 195.694 18.5C194.788 18.9 193.708 19.1 192.454 19.1H188.194L189.634 17.68V23H186.394ZM195.294 23L191.794 17.92H195.254L198.794 23H195.294ZM189.634 18.04L188.194 16.52H192.274C193.274 16.52 194.021 16.3067 194.514 15.88C195.008 15.44 195.254 14.84 195.254 14.08C195.254 13.3067 195.008 12.7067 194.514 12.28C194.021 11.8533 193.274 11.64 192.274 11.64H188.194L189.634 10.1V18.04ZM203.806 23V11.64H199.326V9H211.526V11.64H207.046V23H203.806Z" fill="white"/>
<path d="M88.66 51V37H94.72C95.9733 37 97.0533 37.2067 97.96 37.62C98.8667 38.02 99.5667 38.6 100.06 39.36C100.553 40.12 100.8 41.0267 100.8 42.08C100.8 43.12 100.553 44.02 100.06 44.78C99.5667 45.54 98.8667 46.1267 97.96 46.54C97.0533 46.94 95.9733 47.14 94.72 47.14H90.46L91.9 45.68V51H88.66ZM91.9 46.04L90.46 44.5H94.54C95.54 44.5 96.2867 44.2867 96.78 43.86C97.2733 43.4333 97.52 42.84 97.52 42.08C97.52 41.3067 97.2733 40.7067 96.78 40.28C96.2867 39.8533 95.54 39.64 94.54 39.64H90.46L91.9 38.1V46.04ZM110.008 51.24C108.928 51.24 107.922 51.0667 106.988 50.72C106.068 50.36 105.268 49.8533 104.588 49.2C103.908 48.5467 103.375 47.78 102.988 46.9C102.615 46.02 102.428 45.0533 102.428 44C102.428 42.9467 102.615 41.98 102.988 41.1C103.375 40.22 103.908 39.4533 104.588 38.8C105.282 38.1467 106.088 37.6467 107.008 37.3C107.928 36.94 108.935 36.76 110.028 36.76C111.242 36.76 112.335 36.9733 113.308 37.4C114.295 37.8133 115.122 38.4267 115.788 39.24L113.708 41.16C113.228 40.6133 112.695 40.2067 112.108 39.94C111.522 39.66 110.882 39.52 110.188 39.52C109.535 39.52 108.935 39.6267 108.388 39.84C107.842 40.0533 107.368 40.36 106.968 40.76C106.568 41.16 106.255 41.6333 106.028 42.18C105.815 42.7267 105.708 43.3333 105.708 44C105.708 44.6667 105.815 45.2733 106.028 45.82C106.255 46.3667 106.568 46.84 106.968 47.24C107.368 47.64 107.842 47.9467 108.388 48.16C108.935 48.3733 109.535 48.48 110.188 48.48C110.882 48.48 111.522 48.3467 112.108 48.08C112.695 47.8 113.228 47.38 113.708 46.82L115.788 48.74C115.122 49.5533 114.295 50.1733 113.308 50.6C112.335 51.0267 111.235 51.24 110.008 51.24ZM123.64 51V37H129.7C130.954 37 132.034 37.2067 132.94 37.62C133.847 38.02 134.547 38.6 135.04 39.36C135.534 40.12 135.78 41.0267 135.78 42.08C135.78 43.12 135.534 44.02 135.04 44.78C134.547 45.54 133.847 46.1267 132.94 46.54C132.034 46.94 130.954 47.14 129.7 47.14H125.44L126.88 45.68V51H123.64ZM126.88 46.04L125.44 44.5H129.52C130.52 44.5 131.267 44.2867 131.76 43.86C132.254 43.4333 132.5 42.84 132.5 42.08C132.5 41.3067 132.254 40.7067 131.76 40.28C131.267 39.8533 130.52 39.64 129.52 39.64H125.44L126.88 38.1V46.04ZM135.55 51L141.79 37H144.99L151.25 51H147.85L142.73 38.64H144.01L138.87 51H135.55ZM138.67 48L139.53 45.54H146.73L147.61 48H138.67ZM152.703 51V37H158.763C160.016 37 161.096 37.2067 162.003 37.62C162.91 38.02 163.61 38.6 164.103 39.36C164.596 40.12 164.843 41.0267 164.843 42.08C164.843 43.12 164.596 44.02 164.103 44.78C163.61 45.5267 162.91 46.1 162.003 46.5C161.096 46.9 160.016 47.1 158.763 47.1H154.503L155.943 45.68V51H152.703ZM161.603 51L158.103 45.92H161.563L165.103 51H161.603ZM155.943 46.04L154.503 44.52H158.583C159.583 44.52 160.33 44.3067 160.823 43.88C161.316 43.44 161.563 42.84 161.563 42.08C161.563 41.3067 161.316 40.7067 160.823 40.28C160.33 39.8533 159.583 39.64 158.583 39.64H154.503L155.943 38.1V46.04ZM170.115 51V39.64H165.635V37H177.835V39.64H173.355V51H170.115ZM184.08 51.24C182.96 51.24 181.887 51.0933 180.86 50.8C179.834 50.4933 179.007 50.1 178.38 49.62L179.48 47.18C180.08 47.6067 180.787 47.96 181.6 48.24C182.427 48.5067 183.26 48.64 184.1 48.64C184.74 48.64 185.254 48.58 185.64 48.46C186.04 48.3267 186.334 48.1467 186.52 47.92C186.707 47.6933 186.8 47.4333 186.8 47.14C186.8 46.7667 186.654 46.4733 186.36 46.26C186.067 46.0333 185.68 45.8533 185.2 45.72C184.72 45.5733 184.187 45.44 183.6 45.32C183.027 45.1867 182.447 45.0267 181.86 44.84C181.287 44.6533 180.76 44.4133 180.28 44.12C179.8 43.8267 179.407 43.44 179.1 42.96C178.807 42.48 178.66 41.8667 178.66 41.12C178.66 40.32 178.874 39.5933 179.3 38.94C179.74 38.2733 180.394 37.7467 181.26 37.36C182.14 36.96 183.24 36.76 184.56 36.76C185.44 36.76 186.307 36.8667 187.16 37.08C188.014 37.28 188.767 37.5867 189.42 38L188.42 40.46C187.767 40.0867 187.114 39.8133 186.46 39.64C185.807 39.4533 185.167 39.36 184.54 39.36C183.914 39.36 183.4 39.4333 183 39.58C182.6 39.7267 182.314 39.92 182.14 40.16C181.967 40.3867 181.88 40.6533 181.88 40.96C181.88 41.32 182.027 41.6133 182.32 41.84C182.614 42.0533 183 42.2267 183.48 42.36C183.96 42.4933 184.487 42.6267 185.06 42.76C185.647 42.8933 186.227 43.0467 186.8 43.22C187.387 43.3933 187.92 43.6267 188.4 43.92C188.88 44.2133 189.267 44.6 189.56 45.08C189.867 45.56 190.02 46.1667 190.02 46.9C190.02 47.6867 189.8 48.4067 189.36 49.06C188.92 49.7133 188.26 50.24 187.38 50.64C186.514 51.04 185.414 51.24 184.08 51.24ZM202.498 51.24C201.378 51.24 200.305 51.0933 199.278 50.8C198.252 50.4933 197.425 50.1 196.798 49.62L197.898 47.18C198.498 47.6067 199.205 47.96 200.018 48.24C200.845 48.5067 201.678 48.64 202.518 48.64C203.158 48.64 203.672 48.58 204.058 48.46C204.458 48.3267 204.752 48.1467 204.938 47.92C205.125 47.6933 205.218 47.4333 205.218 47.14C205.218 46.7667 205.072 46.4733 204.778 46.26C204.485 46.0333 204.098 45.8533 203.618 45.72C203.138 45.5733 202.605 45.44 202.018 45.32C201.445 45.1867 200.865 45.0267 200.278 44.84C199.705 44.6533 199.178 44.4133 198.698 44.12C198.218 43.8267 197.825 43.44 197.518 42.96C197.225 42.48 197.078 41.8667 197.078 41.12C197.078 40.32 197.292 39.5933 197.718 38.94C198.158 38.2733 198.812 37.7467 199.678 37.36C200.558 36.96 201.658 36.76 202.978 36.76C203.858 36.76 204.725 36.8667 205.578 37.08C206.432 37.28 207.185 37.5867 207.838 38L206.838 40.46C206.185 40.0867 205.532 39.8133 204.878 39.64C204.225 39.4533 203.585 39.36 202.958 39.36C202.332 39.36 201.818 39.4333 201.418 39.58C201.018 39.7267 200.732 39.92 200.558 40.16C200.385 40.3867 200.298 40.6533 200.298 40.96C200.298 41.32 200.445 41.6133 200.738 41.84C201.032 42.0533 201.418 42.2267 201.898 42.36C202.378 42.4933 202.905 42.6267 203.478 42.76C204.065 42.8933 204.645 43.0467 205.218 43.22C205.805 43.3933 206.338 43.6267 206.818 43.92C207.298 44.2133 207.685 44.6 207.978 45.08C208.285 45.56 208.438 46.1667 208.438 46.9C208.438 47.6867 208.218 48.4067 207.778 49.06C207.338 49.7133 206.678 50.24 205.798 50.64C204.932 51.04 203.832 51.24 202.498 51.24ZM213.357 51V39.64H208.877V37H221.077V39.64H216.597V51H213.357ZM229.425 51.24C228.318 51.24 227.292 51.06 226.345 50.7C225.412 50.34 224.598 49.8333 223.905 49.18C223.225 48.5267 222.692 47.76 222.305 46.88C221.932 46 221.745 45.04 221.745 44C221.745 42.96 221.932 42 222.305 41.12C222.692 40.24 223.232 39.4733 223.925 38.82C224.618 38.1667 225.432 37.66 226.365 37.3C227.298 36.94 228.312 36.76 229.405 36.76C230.512 36.76 231.525 36.94 232.445 37.3C233.378 37.66 234.185 38.1667 234.865 38.82C235.558 39.4733 236.098 40.24 236.485 41.12C236.872 41.9867 237.065 42.9467 237.065 44C237.065 45.04 236.872 46.0067 236.485 46.9C236.098 47.78 235.558 48.5467 234.865 49.2C234.185 49.84 233.378 50.34 232.445 50.7C231.525 51.06 230.518 51.24 229.425 51.24ZM229.405 48.48C230.032 48.48 230.605 48.3733 231.125 48.16C231.658 47.9467 232.125 47.64 232.525 47.24C232.925 46.84 233.232 46.3667 233.445 45.82C233.672 45.2733 233.785 44.6667 233.785 44C233.785 43.3333 233.672 42.7267 233.445 42.18C233.232 41.6333 232.925 41.16 232.525 40.76C232.138 40.36 231.678 40.0533 231.145 39.84C230.612 39.6267 230.032 39.52 229.405 39.52C228.778 39.52 228.198 39.6267 227.665 39.84C227.145 40.0533 226.685 40.36 226.285 40.76C225.885 41.16 225.572 41.6333 225.345 42.18C225.132 42.7267 225.025 43.3333 225.025 44C225.025 44.6533 225.132 45.26 225.345 45.82C225.572 46.3667 225.878 46.84 226.265 47.24C226.665 47.64 227.132 47.9467 227.665 48.16C228.198 48.3733 228.778 48.48 229.405 48.48ZM239.5 51V37H245.56C246.813 37 247.893 37.2067 248.8 37.62C249.707 38.02 250.407 38.6 250.9 39.36C251.393 40.12 251.64 41.0267 251.64 42.08C251.64 43.12 251.393 44.02 250.9 44.78C250.407 45.5267 249.707 46.1 248.8 46.5C247.893 46.9 246.813 47.1 245.56 47.1H241.3L242.74 45.68V51H239.5ZM248.4 51L244.9 45.92H248.36L251.9 51H248.4ZM242.74 46.04L241.3 44.52H245.38C246.38 44.52 247.127 44.3067 247.62 43.88C248.113 43.44 248.36 42.84 248.36 42.08C248.36 41.3067 248.113 40.7067 247.62 40.28C247.127 39.8533 246.38 39.64 245.38 39.64H241.3L242.74 38.1V46.04ZM257.187 42.64H263.927V45.16H257.187V42.64ZM257.427 48.4H265.047V51H254.207V37H264.787V39.6H257.427V48.4Z" fill="white"/>
</svg>
